<?xml version="1.0" standalone="no"?>
<!DOCTYPE svg PUBLIC "-//W3C//DTD SVG 20010904//EN"
 "http://www.w3.org/TR/2001/REC-SVG-20010904/DTD/svg10.dtd">
<svg version="1.0" xmlns="http://www.w3.org/2000/svg"
 width="50px" height="50px" viewBox="0 0 417.000000 378.000000"
 preserveAspectRatio="xMidYMid meet">

<g transform="translate(0.000000,378.000000) scale(0.100000,-0.100000)"
fill="red" stroke="none">
<path d="M1220 3435 l0 -95 -80 0 -80 0 0 -157 0 -158 -77 -29 c-352 -136
-626 -543 -699 -1040 -20 -133 -15 -408 10 -553 22 -125 76 -286 141 -420 l55
-112 0 -160 c0 -156 1 -160 25 -189 50 -59 151 -96 304 -112 140 -14 2252 -14
2392 0 153 16 254 53 304 112 24 28 25 35 25 168 l0 138 36 53 c120 176 219
484 239 739 8 111 -9 330 -35 461 -91 449 -382 817 -737 933 l-53 18 0 154 0
154 -80 0 -80 0 0 95 0 95 -320 0 -319 0 -3 -92 -3 -93 -160 0 -160 0 -3 93
-3 92 -319 0 -320 0 0 -95z m480 -45 l0 -50 -160 0 -160 0 0 50 0 50 160 0
160 0 0 -50z m970 0 l0 -50 -160 0 -160 0 0 50 0 50 160 0 160 0 0 -50z m160
-240 l0 -100 -36 0 c-44 0 -101 -51 -110 -99 l-6 -31 -648 0 -647 0 -12 39
c-16 54 -62 91 -112 91 l-39 0 0 100 0 100 805 0 805 0 0 -100z m-130 -340 c0
-6 11 -22 25 -35 18 -18 35 -25 65 -25 l40 0 0 -130 0 -130 -805 0 -806 0 3
128 3 127 42 3 c34 2 48 10 70 37 l28 34 668 0 c458 1 667 -2 667 -9z m-675
-410 l965 0 0 156 0 155 23 -7 c83 -25 205 -111 289 -204 188 -206 293 -528
273 -840 -6 -94 -31 -250 -34 -208 -1 9 -12 30 -26 46 -50 59 -151 96 -304
112 -140 14 -2252 14 -2392 0 -138 -14 -227 -43 -285 -93 l-22 -19 -7 54 c-5
29 -8 112 -7 183 0 202 42 377 134 557 90 178 206 303 347 377 l76 40 3 -155
3 -154 964 0z"/>
</g>
</svg>
