<?xml version="1.0" encoding="UTF-8"?>
<svg version="1.1" xmlns="http://www.w3.org/2000/svg" width="115px" height="100px" viewBox="0 0 98 20">
<path d="M0 0 C2.64 0 5.28 0 8 0 C8 0.99 8 1.98 8 3 C8.66 3 9.32 3 10 3 C10 2.01 10 1.02 10 0 C12.64 0 15.28 0 18 0 C18 0.99 18 1.98 18 3 C18.66 3 19.32 3 20 3 C20 2.01 20 1.02 20 0 C22.64 0 25.28 0 28 0 C28 0.99 28 1.98 28 3 C28.66 3 29.32 3 30 3 C30 2.01 30 1.02 30 0 C32.64 0 35.28 0 38 0 C38 0.99 38 1.98 38 3 C38.66 3 39.32 3 40 3 C40 2.01 40 1.02 40 0 C42.64 0 45.28 0 48 0 C48 0.99 48 1.98 48 3 C48.66 3 49.32 3 50 3 C50 2.01 50 1.02 50 0 C52.64 0 55.28 0 58 0 C59.15570704 3.46712111 59.32835293 6.5414956 59.5625 10.1875 C59.64628906 11.45980469 59.73007813 12.73210937 59.81640625 14.04296875 C59.87699219 15.01878906 59.93757813 15.99460937 60 17 C62.64 17 65.28 17 68 17 C68 17.99 68 18.98 68 20 C68.66 20 69.32 20 70 20 C70 19.01 70 18.02 70 17 C72.64 17 75.28 17 78 17 C78 17.99 78 18.98 78 20 C78.66 20 79.32 20 80 20 C80 19.01 80 18.02 80 17 C82.64 17 85.28 17 88 17 C90.11081869 23.33245608 89 30.3250052 89 37 C56 37 23 37 -11 37 C-11 20 -11 20 -10 17 C-7.36 17 -4.72 17 -2 17 C-1.93941406 16.02417969 -1.87882812 15.04835938 -1.81640625 14.04296875 C-1.73261719 12.77066406 -1.64882812 11.49835938 -1.5625 10.1875 C-1.48128906 8.92292969 -1.40007812 7.65835937 -1.31640625 6.35546875 C-1 3 -1 3 0 0 Z M1 5 C1 6.65 1 8.3 1 10 C6.28 10 11.56 10 17 10 C17 8.35 17 6.7 17 5 C11.72 5 6.44 5 1 5 Z M21 5 C21 6.65 21 8.3 21 10 C26.28 10 31.56 10 37 10 C37 8.35 37 6.7 37 5 C31.72 5 26.44 5 21 5 Z M41 5 C41 6.65 41 8.3 41 10 C46.28 10 51.56 10 57 10 C57 8.35 57 6.7 57 5 C51.72 5 46.44 5 41 5 Z M1 13 C1 14.65 1 16.3 1 18 C6.28 18 11.56 18 17 18 C17 16.35 17 14.7 17 13 C11.72 13 6.44 13 1 13 Z M21 13 C21 14.65 21 16.3 21 18 C26.28 18 31.56 18 37 18 C37 16.35 37 14.7 37 13 C31.72 13 26.44 13 21 13 Z M41 13 C41 14.65 41 16.3 41 18 C46.28 18 51.56 18 57 18 C57 16.35 57 14.7 57 13 C51.72 13 46.44 13 41 13 Z M-9 22 C-9 23.65 -9 25.3 -9 27 C-3.72 27 1.56 27 7 27 C7 25.35 7 23.7 7 22 C1.72 22 -3.56 22 -9 22 Z M11 22 C11 23.65 11 25.3 11 27 C16.28 27 21.56 27 27 27 C27 25.35 27 23.7 27 22 C21.72 22 16.44 22 11 22 Z M31 22 C31 23.65 31 25.3 31 27 C36.28 27 41.56 27 47 27 C47 25.35 47 23.7 47 22 C41.72 22 36.44 22 31 22 Z M51 22 C51 23.65 51 25.3 51 27 C56.28 27 61.56 27 67 27 C67 25.35 67 23.7 67 22 C61.72 22 56.44 22 51 22 Z M71 22 C71 23.65 71 25.3 71 27 C76.28 27 81.56 27 87 27 C87 25.35 87 23.7 87 22 C81.72 22 76.44 22 71 22 Z M-9 30 C-9 31.65 -9 33.3 -9 35 C-3.72 35 1.56 35 7 35 C7 33.35 7 31.7 7 30 C1.72 30 -3.56 30 -9 30 Z M11 30 C11 31.65 11 33.3 11 35 C16.28 35 21.56 35 27 35 C27 33.35 27 31.7 27 30 C21.72 30 16.44 30 11 30 Z M31 30 C31 31.65 31 33.3 31 35 C36.28 35 41.56 35 47 35 C47 33.35 47 31.7 47 30 C41.72 30 36.44 30 31 30 Z M51 30 C51 31.65 51 33.3 51 35 C56.28 35 61.56 35 67 35 C67 33.35 67 31.7 67 30 C61.72 30 56.44 30 51 30 Z M71 30 C71 31.65 71 33.3 71 35 C76.28 35 81.56 35 87 35 C87 33.35 87 31.7 87 30 C81.72 30 76.44 30 71 30 Z " fill="green" transform="translate(10,0)"/>
</svg>
