<?xml version="1.0" encoding="UTF-8"?>
<svg version="1.1" xmlns="http://www.w3.org/2000/svg" width="115px" height="100px" viewBox="0 0 98 20">
<path d="M0 0 C2.64 0 5.28 0 8 0 C8 0.99 8 1.98 8 3 C8.66 3 9.32 3 10 3 C10 2.01 10 1.02 10 0 C12.64 0 15.28 0 18 0 C19.15570704 3.46712111 19.32835293 6.5414956 19.5625 10.1875 C19.64628906 11.45980469 19.73007813 12.73210937 19.81640625 14.04296875 C19.87699219 15.01878906 19.93757813 15.99460937 20 17 C22.64 17 25.28 17 28 17 C28 17.99 28 18.98 28 20 C28.66 20 29.32 20 30 20 C30 19.01 30 18.02 30 17 C32.64 17 35.28 17 38 17 C38 17.99 38 18.98 38 20 C38.66 20 39.32 20 40 20 C40 19.01 40 18.02 40 17 C42.64 17 45.28 17 48 17 C48 17.99 48 18.98 48 20 C48.66 20 49.32 20 50 20 C50 19.01 50 18.02 50 17 C52.64 17 55.28 17 58 17 C58 17.99 58 18.98 58 20 C58.66 20 59.32 20 60 20 C60 19.01 60 18.02 60 17 C62.64 17 65.28 17 68 17 C69.15570704 20.46712111 69.32835293 23.5414956 69.5625 27.1875 C69.64628906 28.45980469 69.73007813 29.73210937 69.81640625 31.04296875 C69.87699219 32.01878906 69.93757813 32.99460937 70 34 C72.64 34 75.28 34 78 34 C80.11081869 40.33245608 79 47.3250052 79 54 C46 54 13 54 -21 54 C-21 37 -21 37 -20 34 C-17.36 34 -14.72 34 -12 34 C-11.93941406 33.02417969 -11.87882812 32.04835938 -11.81640625 31.04296875 C-11.73261719 29.77066406 -11.64882812 28.49835938 -11.5625 27.1875 C-11.48128906 25.92292969 -11.40007812 24.65835937 -11.31640625 23.35546875 C-11 20 -11 20 -10 17 C-7.36 17 -4.72 17 -2 17 C-1.90912109 15.53626953 -1.90912109 15.53626953 -1.81640625 14.04296875 C-1.73261719 12.77066406 -1.64882812 11.49835938 -1.5625 10.1875 C-1.48128906 8.92292969 -1.40007812 7.65835937 -1.31640625 6.35546875 C-1 3 -1 3 0 0 Z M1 5 C1 6.65 1 8.3 1 10 C6.28 10 11.56 10 17 10 C17 8.35 17 6.7 17 5 C11.72 5 6.44 5 1 5 Z M1 13 C1 14.65 1 16.3 1 18 C6.28 18 11.56 18 17 18 C17 16.35 17 14.7 17 13 C11.72 13 6.44 13 1 13 Z M-9 22 C-9 23.65 -9 25.3 -9 27 C-3.72 27 1.56 27 7 27 C7 25.35 7 23.7 7 22 C1.72 22 -3.56 22 -9 22 Z M11 22 C11 23.65 11 25.3 11 27 C16.28 27 21.56 27 27 27 C27 25.35 27 23.7 27 22 C21.72 22 16.44 22 11 22 Z M31 22 C31 23.65 31 25.3 31 27 C36.28 27 41.56 27 47 27 C47 25.35 47 23.7 47 22 C41.72 22 36.44 22 31 22 Z M51 22 C51 23.65 51 25.3 51 27 C56.28 27 61.56 27 67 27 C67 25.35 67 23.7 67 22 C61.72 22 56.44 22 51 22 Z M-9 30 C-9 31.65 -9 33.3 -9 35 C-3.72 35 1.56 35 7 35 C7 33.35 7 31.7 7 30 C1.72 30 -3.56 30 -9 30 Z M11 30 C11 31.65 11 33.3 11 35 C16.28 35 21.56 35 27 35 C27 33.35 27 31.7 27 30 C21.72 30 16.44 30 11 30 Z M31 30 C31 31.65 31 33.3 31 35 C36.28 35 41.56 35 47 35 C47 33.35 47 31.7 47 30 C41.72 30 36.44 30 31 30 Z M51 30 C51 31.65 51 33.3 51 35 C56.28 35 61.56 35 67 35 C67 33.35 67 31.7 67 30 C61.72 30 56.44 30 51 30 Z M-19 39 C-19 40.65 -19 42.3 -19 44 C-13.72 44 -8.44 44 -3 44 C-3 42.35 -3 40.7 -3 39 C-8.28 39 -13.56 39 -19 39 Z M1 39 C1 40.65 1 42.3 1 44 C6.28 44 11.56 44 17 44 C17 42.35 17 40.7 17 39 C11.72 39 6.44 39 1 39 Z M21 39 C21 40.65 21 42.3 21 44 C26.28 44 31.56 44 37 44 C37 42.35 37 40.7 37 39 C31.72 39 26.44 39 21 39 Z M41 39 C41 40.65 41 42.3 41 44 C46.28 44 51.56 44 57 44 C57 42.35 57 40.7 57 39 C51.72 39 46.44 39 41 39 Z M61 39 C61 40.65 61 42.3 61 44 C66.28 44 71.56 44 77 44 C77 42.35 77 40.7 77 39 C71.72 39 66.44 39 61 39 Z M-19 47 C-19 48.65 -19 50.3 -19 52 C-13.72 52 -8.44 52 -3 52 C-3 50.35 -3 48.7 -3 47 C-8.28 47 -13.56 47 -19 47 Z M1 47 C1 48.65 1 50.3 1 52 C6.28 52 11.56 52 17 52 C17 50.35 17 48.7 17 47 C11.72 47 6.44 47 1 47 Z M21 47 C21 48.65 21 50.3 21 52 C26.28 52 31.56 52 37 52 C37 50.35 37 48.7 37 47 C31.72 47 26.44 47 21 47 Z M41 47 C41 48.65 41 50.3 41 52 C46.28 52 51.56 52 57 52 C57 50.35 57 48.7 57 47 C51.72 47 46.44 47 41 47 Z M61 47 C61 48.65 61 50.3 61 52 C66.28 52 71.56 52 77 52 C77 50.35 77 48.7 77 47 C71.72 47 66.44 47 61 47 Z " fill="red" transform="translate(20,-20)"/>
</svg>
