<?xml version="1.0" encoding="UTF-8"?>
<svg version="1.1" xmlns="http://www.w3.org/2000/svg" width="115px" height="100px" viewBox="0 0 98 20">
<path d="M -10 17 C -10 17 -5 17 -5 17 C -5 21 -6 20 -2 20 L 3 20 L 3 17 L 7 17 L 7 20 L 11 20 L 11 17 L 16 17 L 16 20 L 22 20 L 22 17 L 27 17 C 27 20 26.26 20 30 20 C 30 19.01 30 18.02 30 17 C 32.64 17 35.28 17 38 17 C 38 17.99 38 18.98 38 20 C 38.66 20 39.32 20 40 20 C 40 19.01 40 18.02 40 17 C 42.64 17 45.28 17 48 17 C 49.1557 20.4671 49.3284 23.5415 49.5625 27.1875 C 49.6463 28.4598 49.7301 29.7321 49.8164 31.043 C 49.877 32.0188 49.9376 32.9946 50 34 C 52.64 34 55.28 34 58 34 C 59.1557 37.4671 59.3284 40.5415 59.5625 44.1875 C 59.6463 45.4598 59.7301 46.7321 59.8164 48.043 C 59.877 49.0188 59.9376 49.9946 60 51 C 62.64 51 65.28 51 68 51 C 70.1108 57.3325 69 64.325 69 71 C 36 71 3 71 -31 71 C -31 54 -31 54 -30 51 C -27.36 51 -24.72 51 -22 51 C -21.9394 50.0242 -21.8788 49.0484 -21.8164 48.043 C -21.7326 46.7707 -21.6488 45.4984 -21.5625 44.1875 C -21.4813 42.9229 -21.4001 41.6584 -21.3164 40.3555 C -21 37 -21 37 -20 34 C -17.36 34 -14.72 34 -12 34 C -11.9091 32.5363 -11.9091 32.5363 -11.8164 31.043 C -11.7326 29.7707 -11.6488 28.4984 -11.5625 27.1875 C -11.4813 25.9229 -11.4001 24.6584 -11.3164 23.3555 C -11 20 -11 20 -10 17 Z Z Z M -9 22 C -9 23.65 -9 25.3 -9 27 C -3.72 27 1.56 27 7 27 C 7 25.35 7 23.7 7 22 C 1.72 22 -3.56 22 -9 22 Z M 11 22 C 11 23.65 11 25.3 11 27 C 16.28 27 21.56 27 27 27 C 27 25.35 27 23.7 27 22 C 21.72 22 16.44 22 11 22 Z M 31 22 C 31 23.65 31 25.3 31 27 C 36.28 27 41.56 27 47 27 C 47 25.35 47 23.7 47 22 C 41.72 22 36.44 22 31 22 Z M -9 30 C -9 31.65 -9 33.3 -9 35 C -3.72 35 1.56 35 7 35 C 7 33.35 7 31.7 7 30 C 1.72 30 -3.56 30 -9 30 Z M 11 30 C 11 31.65 11 33.3 11 35 C 16.28 35 21.56 35 27 35 C 27 33.35 27 31.7 27 30 C 21.72 30 16.44 30 11 30 Z M 31 30 C 31 31.65 31 33.3 31 35 C 36.28 35 41.56 35 47 35 C 47 33.35 47 31.7 47 30 C 41.72 30 36.44 30 31 30 Z M -19 39 C -19 40.65 -19 42.3 -19 44 C -13.72 44 -8.44 44 -3 44 C -3 42.35 -3 40.7 -3 39 C -8.28 39 -13.56 39 -19 39 Z M 1 39 C 1 40.65 1 42.3 1 44 C 6.28 44 11.56 44 17 44 C 17 42.35 17 40.7 17 39 C 11.72 39 6.44 39 1 39 Z M 21 39 C 21 40.65 21 42.3 21 44 C 26.28 44 31.56 44 37 44 C 37 42.35 37 40.7 37 39 C 31.72 39 26.44 39 21 39 Z M 41 39 C 41 40.65 41 42.3 41 44 C 46.28 44 51.56 44 57 44 C 57 42.35 57 40.7 57 39 C 51.72 39 46.44 39 41 39 Z M -19 47 C -19 48.65 -19 50.3 -19 52 C -13.72 52 -8.44 52 -3 52 C -3 50.35 -3 48.7 -3 47 C -8.28 47 -13.56 47 -19 47 Z M 1 47 C 1 48.65 1 50.3 1 52 C 6.28 52 11.56 52 17 52 C 17 50.35 17 48.7 17 47 C 11.72 47 6.44 47 1 47 Z M 21 47 C 21 48.65 21 50.3 21 52 C 26.28 52 31.56 52 37 52 C 37 50.35 37 48.7 37 47 C 31.72 47 26.44 47 21 47 Z M 41 47 C 41 48.65 41 50.3 41 52 C 46.28 52 51.56 52 57 52 C 57 50.35 57 48.7 57 47 C 51.72 47 46.44 47 41 47 Z M -29 56 C -29 57.65 -29 59.3 -29 61 C -23.72 61 -18.44 61 -13 61 C -13 59.35 -13 57.7 -13 56 C -18.28 56 -23.56 56 -29 56 Z M -9 56 C -9 57.65 -9 59.3 -9 61 C -3.72 61 1.56 61 7 61 C 7 59.35 7 57.7 7 56 C 1.72 56 -3.56 56 -9 56 Z M 11 56 C 11 57.65 11 59.3 11 61 C 16.28 61 21.56 61 27 61 C 27 59.35 27 57.7 27 56 C 21.72 56 16.44 56 11 56 Z M 31 56 C 31 57.65 31 59.3 31 61 C 36.28 61 41.56 61 47 61 C 47 59.35 47 57.7 47 56 C 41.72 56 36.44 56 31 56 Z M 51 56 C 51 57.65 51 59.3 51 61 C 56.28 61 61.56 61 67 61 C 67 59.35 67 57.7 67 56 C 61.72 56 56.44 56 51 56 Z M -29 64 C -29 65.65 -29 67.3 -29 69 C -23.72 69 -18.44 69 -13 69 C -13 67.35 -13 65.7 -13 64 C -18.28 64 -23.56 64 -29 64 Z M -9 64 C -9 65.65 -9 67.3 -9 69 C -3.72 69 1.56 69 7 69 C 7 67.35 7 65.7 7 64 C 1.72 64 -3.56 64 -9 64 Z M 11 64 C 11 65.65 11 67.3 11 69 C 16.28 69 21.56 69 27 69 C 27 67.35 27 65.7 27 64 C 21.72 64 16.44 64 11 64 Z M 31 64 C 31 65.65 31 67.3 31 69 C 36.28 69 41.56 69 47 69 C 47 67.35 47 65.7 47 64 C 41.72 64 36.44 64 31 64 Z M 51 64 C 51 65.65 51 67.3 51 69 C 56.28 69 61.56 69 67 69 C 67 67.35 67 65.7 67 64 C 61.72 64 56.44 64 51 64 Z" fill="red" transform="translate(30,-20)"/>
</svg>
