<?xml version="1.0" encoding="UTF-8"?>
<svg version="1.1" xmlns="http://www.w3.org/2000/svg" width="32" height="24" viewBox="0 0 98 20">
<path d="M0 0 C2.64 0 5.28 0 8 0 C8 0.99 8 1.98 8 3 C8.66 3 9.32 3 10 3 C10 2.01 10 1.02 10 0 C12.64 0 15.28 0 18 0 C18 0.99 18 1.98 18 3 C18.66 3 19.32 3 20 3 C20 2.01 20 1.02 20 0 C22.64 0 25.28 0 28 0 C28 0.99 28 1.98 28 3 C28.66 3 29.32 3 30 3 C30 2.01 30 1.02 30 0 C32.64 0 35.28 0 38 0 C39.15570704 3.46712111 39.32835293 6.5414956 39.5625 10.1875 C39.64628906 11.45980469 39.73007813 12.73210937 39.81640625 14.04296875 C39.87699219 15.01878906 39.93757813 15.99460937 40 17 C42.64 17 45.28 17 48 17 C49.15570704 20.46712111 49.32835293 23.5414956 49.5625 27.1875 C49.64628906 28.45980469 49.73007813 29.73210937 49.81640625 31.04296875 C49.87699219 32.01878906 49.93757813 32.99460937 50 34 C52.64 34 55.28 34 58 34 C59.15570704 37.46712111 59.32835293 40.5414956 59.5625 44.1875 C59.64628906 45.45980469 59.73007813 46.73210937 59.81640625 48.04296875 C59.87699219 49.01878906 59.93757813 49.99460937 60 51 C62.64 51 65.28 51 68 51 C70.11081869 57.33245608 69 64.3250052 69 71 C36 71 3 71 -31 71 C-31 54 -31 54 -30 51 C-27.36 51 -24.72 51 -22 51 C-21.93941406 50.02417969 -21.87882812 49.04835938 -21.81640625 48.04296875 C-21.73261719 46.77066406 -21.64882812 45.49835938 -21.5625 44.1875 C-21.48128906 42.92292969 -21.40007812 41.65835937 -21.31640625 40.35546875 C-21 37 -21 37 -20 34 C-17.36 34 -14.72 34 -12 34 C-11.90912109 32.53626953 -11.90912109 32.53626953 -11.81640625 31.04296875 C-11.73261719 29.77066406 -11.64882812 28.49835938 -11.5625 27.1875 C-11.48128906 25.92292969 -11.40007812 24.65835937 -11.31640625 23.35546875 C-11 20 -11 20 -10 17 C-7.36 17 -4.72 17 -2 17 C-1.90912109 15.53626953 -1.90912109 15.53626953 -1.81640625 14.04296875 C-1.73261719 12.77066406 -1.64882812 11.49835938 -1.5625 10.1875 C-1.48128906 8.92292969 -1.40007812 7.65835937 -1.31640625 6.35546875 C-1 3 -1 3 0 0 Z M1 5 C1 6.65 1 8.3 1 10 C6.28 10 11.56 10 17 10 C17 8.35 17 6.7 17 5 C11.72 5 6.44 5 1 5 Z M21 5 C21 6.65 21 8.3 21 10 C26.28 10 31.56 10 37 10 C37 8.35 37 6.7 37 5 C31.72 5 26.44 5 21 5 Z M1 13 C1 14.65 1 16.3 1 18 C6.28 18 11.56 18 17 18 C17 16.35 17 14.7 17 13 C11.72 13 6.44 13 1 13 Z M21 13 C21 14.65 21 16.3 21 18 C26.28 18 31.56 18 37 18 C37 16.35 37 14.7 37 13 C31.72 13 26.44 13 21 13 Z M-9 22 C-9 23.65 -9 25.3 -9 27 C-3.72 27 1.56 27 7 27 C7 25.35 7 23.7 7 22 C1.72 22 -3.56 22 -9 22 Z M11 22 C11 23.65 11 25.3 11 27 C16.28 27 21.56 27 27 27 C27 25.35 27 23.7 27 22 C21.72 22 16.44 22 11 22 Z M31 22 C31 23.65 31 25.3 31 27 C36.28 27 41.56 27 47 27 C47 25.35 47 23.7 47 22 C41.72 22 36.44 22 31 22 Z M-9 30 C-9 31.65 -9 33.3 -9 35 C-3.72 35 1.56 35 7 35 C7 33.35 7 31.7 7 30 C1.72 30 -3.56 30 -9 30 Z M11 30 C11 31.65 11 33.3 11 35 C16.28 35 21.56 35 27 35 C27 33.35 27 31.7 27 30 C21.72 30 16.44 30 11 30 Z M31 30 C31 31.65 31 33.3 31 35 C36.28 35 41.56 35 47 35 C47 33.35 47 31.7 47 30 C41.72 30 36.44 30 31 30 Z M-19 39 C-19 40.65 -19 42.3 -19 44 C-13.72 44 -8.44 44 -3 44 C-3 42.35 -3 40.7 -3 39 C-8.28 39 -13.56 39 -19 39 Z M1 39 C1 40.65 1 42.3 1 44 C6.28 44 11.56 44 17 44 C17 42.35 17 40.7 17 39 C11.72 39 6.44 39 1 39 Z M21 39 C21 40.65 21 42.3 21 44 C26.28 44 31.56 44 37 44 C37 42.35 37 40.7 37 39 C31.72 39 26.44 39 21 39 Z M41 39 C41 40.65 41 42.3 41 44 C46.28 44 51.56 44 57 44 C57 42.35 57 40.7 57 39 C51.72 39 46.44 39 41 39 Z M-19 47 C-19 48.65 -19 50.3 -19 52 C-13.72 52 -8.44 52 -3 52 C-3 50.35 -3 48.7 -3 47 C-8.28 47 -13.56 47 -19 47 Z M1 47 C1 48.65 1 50.3 1 52 C6.28 52 11.56 52 17 52 C17 50.35 17 48.7 17 47 C11.72 47 6.44 47 1 47 Z M21 47 C21 48.65 21 50.3 21 52 C26.28 52 31.56 52 37 52 C37 50.35 37 48.7 37 47 C31.72 47 26.44 47 21 47 Z M41 47 C41 48.65 41 50.3 41 52 C46.28 52 51.56 52 57 52 C57 50.35 57 48.7 57 47 C51.72 47 46.44 47 41 47 Z M-29 56 C-29 57.65 -29 59.3 -29 61 C-23.72 61 -18.44 61 -13 61 C-13 59.35 -13 57.7 -13 56 C-18.28 56 -23.56 56 -29 56 Z M-9 56 C-9 57.65 -9 59.3 -9 61 C-3.72 61 1.56 61 7 61 C7 59.35 7 57.7 7 56 C1.72 56 -3.56 56 -9 56 Z M11 56 C11 57.65 11 59.3 11 61 C16.28 61 21.56 61 27 61 C27 59.35 27 57.7 27 56 C21.72 56 16.44 56 11 56 Z M31 56 C31 57.65 31 59.3 31 61 C36.28 61 41.56 61 47 61 C47 59.35 47 57.7 47 56 C41.72 56 36.44 56 31 56 Z M51 56 C51 57.65 51 59.3 51 61 C56.28 61 61.56 61 67 61 C67 59.35 67 57.7 67 56 C61.72 56 56.44 56 51 56 Z M-29 64 C-29 65.65 -29 67.3 -29 69 C-23.72 69 -18.44 69 -13 69 C-13 67.35 -13 65.7 -13 64 C-18.28 64 -23.56 64 -29 64 Z M-9 64 C-9 65.65 -9 67.3 -9 69 C-3.72 69 1.56 69 7 69 C7 67.35 7 65.7 7 64 C1.72 64 -3.56 64 -9 64 Z M11 64 C11 65.65 11 67.3 11 69 C16.28 69 21.56 69 27 69 C27 67.35 27 65.7 27 64 C21.72 64 16.44 64 11 64 Z M31 64 C31 65.65 31 67.3 31 69 C36.28 69 41.56 69 47 69 C47 67.35 47 65.7 47 64 C41.72 64 36.44 64 31 64 Z M51 64 C51 65.65 51 67.3 51 69 C56.28 69 61.56 69 67 69 C67 67.35 67 65.7 67 64 C61.72 64 56.44 64 51 64 Z " fill="red" transform="translate(30,-25)"/>
</svg>
