<?xml version="1.0" encoding="UTF-8"?>
<svg version="1.1" xmlns="http://www.w3.org/2000/svg" width="32" height="24" viewBox="0 0 38 20">
<path d="M0 0 C2.64 0 5.28 0 8 0 C8 0.99 8 1.98 8 3 C8.66 3 9.32 3 10 3 C10 2.01 10 1.02 10 0 C12.64 0 15.28 0 18 0 C18 0.99 18 1.98 18 3 C18.66 3 19.32 3 20 3 C20 2.01 20 1.02 20 0 C22.64 0 25.28 0 28 0 C28 0.99 28 1.98 28 3 C28.66 3 29.32 3 30 3 C30 2.01 30 1.02 30 0 C32.64 0 35.28 0 38 0 C40.11081869 6.33245608 39 13.3250052 39 20 C25.8 20 12.6 20 -1 20 C-1 3 -1 3 0 0 Z M1 5 C1 6.65 1 8.3 1 10 C6.28 10 11.56 10 17 10 C17 8.35 17 6.7 17 5 C11.72 5 6.44 5 1 5 Z M21 5 C21 6.65 21 8.3 21 10 C26.28 10 31.56 10 37 10 C37 8.35 37 6.7 37 5 C31.72 5 26.44 5 21 5 Z M1 13 C1 14.65 1 16.3 1 18 C6.28 18 11.56 18 17 18 C17 16.35 17 14.7 17 13 C11.72 13 6.44 13 1 13 Z M21 13 C21 14.65 21 16.3 21 18 C26.28 18 31.56 18 37 18 C37 16.35 37 14.7 37 13 C31.72 13 26.44 13 21 13 Z " fill="red" transform="translate(0,0)"/>
</svg>
