<?xml version="1.0" encoding="UTF-8"?>
<svg version="1.1" xmlns="http://www.w3.org/2000/svg" width="32" height="24" viewBox="0 0 98 20">
<path d="M0 0 C2.64 0 5.28 0 8 0 C8 0.99 8 1.98 8 3 C8.66 3 9.32 3 10 3 C10 2.01 10 1.02 10 0 C12.64 0 15.28 0 18 0 C18 0.99 18 1.98 18 3 C18.66 3 19.32 3 20 3 C20 2.01 20 1.02 20 0 C22.64 0 25.28 0 28 0 C28 0.99 28 1.98 28 3 C28.66 3 29.32 3 30 3 C30 2.01 30 1.02 30 0 C32.64 0 35.28 0 38 0 C38 0.99 38 1.98 38 3 C38.66 3 39.32 3 40 3 C40 2.01 40 1.02 40 0 C42.64 0 45.28 0 48 0 C48 0.99 48 1.98 48 3 C48.66 3 49.32 3 50 3 C50 2.01 50 1.02 50 0 C52.64 0 55.28 0 58 0 C58 0.99 58 1.98 58 3 C58.66 3 59.32 3 60 3 C60 2.01 60 1.02 60 0 C62.64 0 65.28 0 68 0 C68 0.99 68 1.98 68 3 C68.66 3 69.32 3 70 3 C70 2.01 70 1.02 70 0 C72.64 0 75.28 0 78 0 C78 0.99 78 1.98 78 3 C78.66 3 79.32 3 80 3 C80 2.01 80 1.02 80 0 C82.64 0 85.28 0 88 0 C88 0.99 88 1.98 88 3 C88.66 3 89.32 3 90 3 C90 2.01 90 1.02 90 0 C92.64 0 95.28 0 98 0 C100.11081869 6.33245608 99 13.3250052 99 20 C66 20 33 20 -1 20 C-1 3 -1 3 0 0 Z M1 5 C1 6.65 1 8.3 1 10 C6.28 10 11.56 10 17 10 C17 8.35 17 6.7 17 5 C11.72 5 6.44 5 1 5 Z M21 5 C21 6.65 21 8.3 21 10 C26.28 10 31.56 10 37 10 C37 8.35 37 6.7 37 5 C31.72 5 26.44 5 21 5 Z M41 5 C41 6.65 41 8.3 41 10 C46.28 10 51.56 10 57 10 C57 8.35 57 6.7 57 5 C51.72 5 46.44 5 41 5 Z M61 5 C61 6.65 61 8.3 61 10 C66.28 10 71.56 10 77 10 C77 8.35 77 6.7 77 5 C71.72 5 66.44 5 61 5 Z M81 5 C81 6.65 81 8.3 81 10 C86.28 10 91.56 10 97 10 C97 8.35 97 6.7 97 5 C91.72 5 86.44 5 81 5 Z M1 13 C1 14.65 1 16.3 1 18 C6.28 18 11.56 18 17 18 C17 16.35 17 14.7 17 13 C11.72 13 6.44 13 1 13 Z M21 13 C21 14.65 21 16.3 21 18 C26.28 18 31.56 18 37 18 C37 16.35 37 14.7 37 13 C31.72 13 26.44 13 21 13 Z M41 13 C41 14.65 41 16.3 41 18 C46.28 18 51.56 18 57 18 C57 16.35 57 14.7 57 13 C51.72 13 46.44 13 41 13 Z M61 13 C61 14.65 61 16.3 61 18 C66.28 18 71.56 18 77 18 C77 16.35 77 14.7 77 13 C71.72 13 66.44 13 61 13 Z M81 13 C81 14.65 81 16.3 81 18 C86.28 18 91.56 18 97 18 C97 16.35 97 14.7 97 13 C91.72 13 86.44 13 81 13 Z " fill="red" transform="translate(0,0)"/>
</svg>
